<?xml version="1.0" encoding="utf-8"?>
<!-- Generator: Adobe Illustrator 21.1.0, SVG Export Plug-In . SVG Version: 6.00 Build 0)  -->
<svg version="1.1" id="finals" xmlns="http://www.w3.org/2000/svg" xmlns:xlink="http://www.w3.org/1999/xlink" x="0px" y="0px"
	 viewBox="0 0 44 47" style="enable-background:new 0 0 44 47;" xml:space="preserve">
<path style="fill:#009FDA;" d="M7.788,36.092l-2.727,1.45l-2.778-4.28l2.432-1.9c-0.591-1.301-1.033-2.663-1.32-4.063l-3.085-0.108
	l-0.269-5.095l3.058-0.43c0.135-1.401,0.436-2.799,0.896-4.173l-2.622-1.639l2.317-4.547l2.867,1.158
	c0.842-1.18,1.795-2.244,2.85-3.178l-1.45-2.727l4.28-2.778l1.9,2.432c1.301-0.591,2.663-1.033,4.063-1.32l0.108-3.085l5.095-0.269
	l0.43,3.058c0.836,0.081,1.669,0.227,2.498,0.424l-1.853,2.673c-6.655-1.044-13.51,2.21-16.734,8.538s-1.828,13.787,2.929,18.557
	l-1.069,3.059C8.959,37.298,8.344,36.719,7.788,36.092z M40.899,25.334l3.058-0.43l-0.269-5.095l-3.085-0.108
	c-0.287-1.4-0.729-2.762-1.32-4.063l2.432-1.9l-2.778-4.28l-2.727,1.45c-0.555-0.627-1.171-1.206-1.815-1.76l-1.069,3.059
	c4.757,4.77,6.153,12.229,2.929,18.557s-10.08,9.582-16.734,8.538l-1.853,2.673c0.829,0.197,1.662,0.343,2.498,0.424l0.43,3.058
	l5.095-0.269l0.108-3.085c1.4-0.287,2.762-0.729,4.063-1.32l1.9,2.432l4.28-2.778l-1.45-2.727c1.054-0.933,2.008-1.997,2.85-3.178
	l2.867,1.158l2.317-4.547l-2.622-1.639C40.463,28.132,40.763,26.735,40.899,25.334z M26.188,25.634
	c-0.631,1.238-1.74,2.06-2.985,2.392L10,47l7.632-21.813c-0.464-1.202-0.45-2.582,0.18-3.82c0.631-1.238,1.74-2.06,2.985-2.392L34,0
	l-7.632,21.813C26.832,23.015,26.819,24.395,26.188,25.634z M23.421,18.949l1.426,0.726L27,13.7L23.421,18.949z M24.406,24.726
	c0.677-1.329,0.149-2.955-1.18-3.632c-1.329-0.677-2.955-0.149-3.632,1.18c-0.677,1.329-0.149,2.955,1.18,3.632
	C22.103,26.583,23.729,26.054,24.406,24.726z M0,0 M44,47"/>
</svg>
